:FULLY-SPECIFIED
:FORCE-ALL-JOINTS-BE-3DOF
:DEGREES
68
root 5.9749 16.7549 -28.021 10.7691 2.99371 -3.94927
lfemur -34.1075 13.3816 -16.9186
ltibia 50.2262 0 0
lfoot -21.5278 -9.3924 0
ltoes 31.4974 0 0
rfemur -16.39 -1.32489 21.8249
rtibia 29.9672 0 0
rfoot -27.5133 -17.2753 0
rtoes -7.74355 0 0
lowerback -3.65377 2.57454 3.21439
upperback -1.47651 3.32711 -0.134544
thorax 0.71433 1.65807 -1.7971
lowerneck -9.96785 -2.57679 2.27545
upperneck -5.32774 -3.60092 2.02577
head -0.0198994 -1.8145 0.14566
lclavicle 1.89473e-14 8.45307e-15 0
lhumerus -40.9242 -12.2321 93.8789
lradius 44.0704 0 0
lwrist 7.98735 0 0
lhand -10.8768 2.4464 0
lfingers 7.12502 0 0
lthumb 15.1389 31.8708 0
rclavicle 1.89473e-14 8.45307e-15 0
rhumerus -39.3395 1.34936 -91.3968
rradius 42.7349 0 0
rwrist 7.20679 0 0
rhand -24.4697 -21.7297 0
rfingers 7.12502 0 0
rthumb 2.02362 -51.6972 0
69
root 5.9982 16.7513 -27.9878 10.7297 3.07868 -4.08708
lfemur -34.2994 13.1309 -16.5085
ltibia 49.9555 0 0
lfoot -21.3632 -8.59607 0
ltoes 30.8222 0 0
rfemur -16.1295 -1.53191 21.8959
rtibia 29.7901 0 0
rfoot -27.5858 -17.1667 0
rtoes -7.76572 0 0
lowerback -3.61102 2.64591 3.22249
upperback -1.50257 3.42409 -0.0852105
thorax 0.665608 1.70572 -1.75023
lowerneck -9.98919 -2.64483 2.33471
upperneck -5.31229 -3.69827 1.98969
head -0.0142084 -1.86386 0.121864
lclavicle 1.80125e-14 8.92637e-15 0
lhumerus -41.0619 -11.9929 93.7407
lradius 44.1275 0 0
lwrist 8.085 0 0
lhand -10.7746 2.46358 0
lfingers 7.12502 0 0
lthumb 15.2374 31.8802 0
rclavicle 1.80125e-14 8.92637e-15 0
rhumerus -39.2389 1.44277 -91.2269
rradius 42.8602 0 0
rwrist 7.19185 0 0
rhand -24.336 -21.6463 0
rfingers 7.12502 0 0
rthumb 2.15276 -51.6121 0
70
root 6.02149 16.7477 -27.9547 10.6904 3.16365 -4.22489
lfemur -34.4912 12.8803 -16.0984
ltibia 49.6848 0 0
lfoot -21.1987 -7.79975 0
ltoes 30.147 0 0
rfemur -15.8691 -1.73893 21.9668
rtibia 29.613 0 0
rfoot -27.6583 -17.0581 0
rtoes -7.78788 0 0
lowerback -3.56827 2.71728 3.23059
upperback -1.52863 3.52107 -0.0358766
thorax 0.616886 1.75336 -1.70337
lowerneck -10.0105 -2.71286 2.39396
upperneck -5.29685 -3.79562 1.95361
head -0.0085175 -1.91323 0.0980676
lclavicle 1.70777e-14 9.39966e-15 0
lhumerus -41.1995 -11.7537 93.6024
lradius 44.1847 0 0
lwrist 8.18265 0 0
lhand -10.6723 2.48076 0
lfingers 7.12502 0 0
lthumb 15.3359 31.8896 0
rclavicle 1.70777e-14 9.39966e-15 0
rhumerus -39.1383 1.53618 -91.057
rradius 42.9856 0 0
rwrist 7.17692 0 0
rhand -24.2023 -21.5628 0
rfingers 7.12502 0 0
rthumb 2.28189 -51.5269 0
71
root 6.04479 16.7441 -27.9215 10.651 3.24862 -4.36269
lfemur -34.6831 12.6296 -15.6884
ltibia 49.4141 0 0
lfoot -21.0341 -7.00342 0
ltoes 29.4719 0 0
rfemur -15.6086 -1.94596 22.0378
rtibia 29.4359 0 0
rfoot -27.7309 -16.9495 0
rtoes -7.81005 0 0
lowerback -3.52551 2.78865 3.23869
upperback -1.55469 3.61805 0.0134573
thorax 0.568165 1.80101 -1.6565
lowerneck -10.0319 -2.7809 2.45322
upperneck -5.2814 -3.89297 1.91752
head -0.00282657 -1.96259 0.0742713
lclavicle 1.6143e-14 9.87296e-15 0
lhumerus -41.3372 -11.5145 93.4642
lradius 44.2418 0 0
lwrist 8.2803 0 0
lhand -10.5701 2.49794 0
lfingers 7.12502 0 0
lthumb 15.4344 31.899 0
rclavicle 1.6143e-14 9.87296e-15 0
rhumerus -39.0377 1.62959 -90.8871
rradius 43.111 0 0
rwrist 7.16198 0 0
rhand -24.0686 -21.4794 0
rfingers 7.12502 0 0
rthumb 2.41103 -51.4418 0
72
root 6.06809 16.7405 -27.8883 10.6116 3.3336 -4.5005
lfemur -34.875 12.3789 -15.2783
ltibia 49.1434 0 0
lfoot -20.8695 -6.2071 0
ltoes 28.7967 0 0
rfemur -15.3481 -2.15298 22.1088
rtibia 29.2588 0 0
rfoot -27.8034 -16.8408 0
rtoes -7.83221 0 0
lowerback -3.48276 2.86002 3.24679
upperback -1.58075 3.71503 0.0627912
thorax 0.519443 1.84866 -1.60964
lowerneck -10.0532 -2.84894 2.51248
upperneck -5.26595 -3.99032 1.88144
head 0.00286437 -2.01195 0.0504751
lclavicle 1.52082e-14 1.03463e-14 0
lhumerus -41.4749 -11.2753 93.326
lradius 44.2989 0 0
lwrist 8.37795 0 0
lhand -10.4678 2.51512 0
lfingers 7.12502 0 0
lthumb 15.5329 31.9084 0
rclavicle 1.52082e-14 1.03463e-14 0
rhumerus -38.9371 1.72299 -90.7172
rradius 43.2363 0 0
rwrist 7.14704 0 0
rhand -23.9349 -21.396 0
rfingers 7.12502 0 0
rthumb 2.54016 -51.3566 0
73
root 6.09138 16.7369 -27.8551 10.5722 3.41857 -4.63831
lfemur -35.0669 12.1283 -14.8683
ltibia 48.8727 0 0
lfoot -20.7049 -5.41077 0
ltoes 28.1215 0 0
rfemur -15.0877 -2.36 22.1797
rtibia 29.0817 0 0
rfoot -27.8759 -16.7322 0
rtoes -7.85438 0 0
lowerback -3.44001 2.93139 3.25489
upperback -1.60681 3.81201 0.112125
thorax 0.470721 1.89631 -1.56277
lowerneck -10.0746 -2.91697 2.57174
upperneck -5.25051 -4.08767 1.84536
head 0.0085553 -2.06132 0.0266789
lclavicle 1.42734e-14 1.08196e-14 0
lhumerus -41.6125 -11.0361 93.1878
lradius 44.3561 0 0
lwrist 8.4756 0 0
lhand -10.3655 2.5323 0
lfingers 7.12502 0 0
lthumb 15.6314 31.9178 0
rclavicle 1.42734e-14 1.08196e-14 0
rhumerus -38.8365 1.8164 -90.5473
rradius 43.3617 0 0
rwrist 7.13211 0 0
rhand -23.8012 -21.3126 0
rfingers 7.12502 0 0
rthumb 2.6693 -51.2715 0
74
root 6.11468 16.7333 -27.8219 10.5328 3.50354 -4.77611
lfemur -35.2588 11.8776 -14.4582
ltibia 48.602 0 0
lfoot -20.5403 -4.61445 0
ltoes 27.4463 0 0
rfemur -14.8272 -2.56702 22.2507
rtibia 28.9046 0 0
rfoot -27.9484 -16.6236 0
rtoes -7.87654 0 0
lowerback -3.39726 3.00276 3.26299
upperback -1.63287 3.90899 0.161459
thorax 0.421999 1.94396 -1.51591
lowerneck -10.0959 -2.98501 2.631
upperneck -5.23506 -4.18502 1.80927
head 0.0142462 -2.11068 0.00288262
lclavicle 1.33387e-14 1.12928e-14 0
lhumerus -41.7502 -10.7969 93.0496
lradius 44.4132 0 0
lwrist 8.57325 0 0
lhand -10.2633 2.54948 0
lfingers 7.12502 0 0
lthumb 15.7299 31.9272 0
rclavicle 1.33387e-14 1.12928e-14 0
rhumerus -38.7359 1.90981 -90.3774
rradius 43.4871 0 0
rwrist 7.11717 0 0
rhand -23.6675 -21.2292 0
rfingers 7.12502 0 0
rthumb 2.79843 -51.1863 0
75
root 6.13798 16.7297 -27.7887 10.4934 3.58851 -4.91392
lfemur -35.4507 11.6269 -14.0482
ltibia 48.3312 0 0
lfoot -20.3757 -3.81812 0
ltoes 26.7712 0 0
rfemur -14.5668 -2.77405 22.3216
rtibia 28.7275 0 0
rfoot -28.021 -16.515 0
rtoes -7.89871 0 0
lowerback -3.3545 3.07412 3.27108
upperback -1.65894 4.00597 0.210793
thorax 0.373278 1.99161 -1.46904
lowerneck -10.1173 -3.05304 2.69026
upperneck -5.21962 -4.28238 1.77319
head 0.0199372 -2.16005 -0.0209136
lclavicle 1.24039e-14 1.17661e-14 0
lhumerus -41.8878 -10.5577 92.9114
lradius 44.4704 0 0
lwrist 8.6709 0 0
lhand -10.161 2.56666 0
lfingers 7.12502 0 0
lthumb 15.8283 31.9365 0
rclavicle 1.24039e-14 1.17661e-14 0
rhumerus -38.6352 2.00322 -90.2075
rradius 43.6124 0 0
rwrist 7.10223 0 0
rhand -23.5337 -21.1458 0
rfingers 7.12502 0 0
rthumb 2.92757 -51.1012 0
76
root 6.16128 16.7261 -27.7555 10.454 3.67348 -5.05172
lfemur -35.6426 11.3763 -13.6381
ltibia 48.0605 0 0
lfoot -20.2111 -3.0218 0
ltoes 26.096 0 0
rfemur -14.3063 -2.98107 22.3926
rtibia 28.5504 0 0
rfoot -28.0935 -16.4064 0
rtoes -7.92087 0 0
lowerback -3.31175 3.14549 3.27918
upperback -1.685 4.10295 0.260127
thorax 0.324556 2.03926 -1.42218
lowerneck -10.1386 -3.12108 2.74952
upperneck -5.20417 -4.37973 1.7371
head 0.0256281 -2.20941 -0.0447099
lclavicle 1.14692e-14 1.22394e-14 0
lhumerus -42.0255 -10.3185 92.7732
lradius 44.5275 0 0
lwrist 8.76855 0 0
lhand -10.0587 2.58384 0
lfingers 7.12502 0 0
lthumb 15.9268 31.9459 0
rclavicle 1.14692e-14 1.22394e-14 0
rhumerus -38.5346 2.09663 -90.0376
rradius 43.7378 0 0
rwrist 7.08729 0 0
rhand -23.4 -21.0624 0
rfingers 7.12502 0 0
rthumb 3.0567 -51.016 0
